<?xml version="1.0" standalone="no"?>
<!DOCTYPE svg PUBLIC "-//W3C//DTD SVG 20010904//EN"
 "http://www.w3.org/TR/2001/REC-SVG-20010904/DTD/svg10.dtd">
<svg version="1.0" xmlns="http://www.w3.org/2000/svg"
 width="949.000000pt" height="949.000000pt" viewBox="0 0 949.000000 949.000000"
 preserveAspectRatio="xMidYMid meet">
<metadata>
Created by potrace 1.14, written by Peter Selinger 2001-2017
</metadata>
<g transform="translate(0.000000,949.000000) scale(0.100000,-0.100000)"
fill="#000000" stroke="none">
<path d="M4470 7762 c0 -6 10 -16 21 -23 17 -9 25 -8 37 5 14 13 14 16 2 16
-8 0 -25 3 -37 6 -14 4 -23 2 -23 -4z"/>
<path d="M5690 7735 c0 -2 14 -11 30 -20 17 -9 30 -12 30 -7 0 5 -11 14 -25
20 -28 13 -35 14 -35 7z"/>
<path d="M3185 7661 c-129 -66 -188 -102 -181 -108 10 -10 74 18 96 42 13 14
30 25 38 25 19 0 172 83 172 93 0 11 -9 8 -125 -52z"/>
<path d="M4430 7659 c0 -5 5 -7 10 -4 6 3 10 8 10 11 0 2 -4 4 -10 4 -5 0 -10
-5 -10 -11z"/>
<path d="M5610 7660 c8 -5 20 -10 25 -10 6 0 3 5 -5 10 -8 5 -19 10 -25 10 -5
0 -3 -5 5 -10z"/>
<path d="M5612 7608 c5 -13 10 -16 81 -50 27 -12 51 -26 54 -31 3 -5 -18 3
-47 18 -45 23 -164 48 -150 32 3 -4 48 -24 100 -46 116 -48 263 -124 267 -138
2 -5 -45 14 -104 42 -112 54 -170 75 -158 55 4 -6 93 -54 198 -108 231 -116
210 -107 205 -92 -2 7 -25 25 -52 39 -26 14 -43 27 -38 29 7 2 97 -47 142 -78
12 -8 10 -9 -7 -5 -17 5 -21 3 -17 -8 7 -18 81 -60 94 -52 12 7 50 -16 50 -32
0 -19 62 -65 81 -60 10 3 26 -4 36 -16 10 -11 51 -45 92 -75 71 -53 247 -213
284 -259 9 -11 17 -28 17 -36 0 -23 71 -79 85 -67 8 6 26 -5 56 -36 33 -34 43
-51 41 -72 -2 -21 11 -43 56 -97 52 -62 67 -85 105 -160 50 -98 122 -231 128
-235 8 -6 59 -124 84 -195 10 -27 25 -57 33 -65 13 -13 14 -11 9 20 -3 19 -9
44 -13 55 -5 14 -1 12 15 -7 12 -16 26 -28 31 -28 15 0 -18 94 -37 108 -16 11
-19 10 -23 -9 -4 -16 -15 0 -49 72 -28 59 -40 94 -33 97 15 5 0 34 -35 71 -27
29 -133 204 -133 220 0 50 -229 349 -332 433 -35 29 -45 43 -41 59 10 36 -117
149 -167 149 -12 0 -47 21 -79 48 -33 26 -100 76 -150 112 -62 44 -89 70 -86
80 3 8 -3 20 -13 25 -26 14 -73 43 -160 98 -43 27 -117 69 -167 93 -49 25
-108 54 -130 66 -57 30 -128 51 -123 36z"/>
<path d="M4370 7584 c-364 -21 -721 -112 -1047 -269 -86 -41 -130 -58 -126
-48 4 11 2 14 -5 9 -7 -4 -12 -13 -12 -19 0 -17 -55 -48 -72 -42 -7 3 -29 -10
-48 -28 -19 -18 -69 -56 -110 -85 -222 -152 -483 -401 -642 -613 -313 -417
-495 -882 -549 -1404 -13 -131 -7 -579 10 -650 21 -95 23 -115 6 -115 -22 0
-19 -17 5 -23 12 -3 20 -14 20 -26 0 -27 51 -221 85 -325 41 -125 110 -289
185 -436 37 -74 75 -153 84 -175 9 -22 36 -62 60 -88 24 -26 53 -66 64 -89 12
-24 55 -81 97 -128 42 -47 91 -103 108 -125 l31 -40 -48 43 c-26 24 -50 41
-53 39 -12 -12 48 -90 117 -152 82 -74 193 -167 242 -203 32 -22 64 -30 53
-12 -3 6 24 -13 62 -42 352 -267 786 -448 1258 -523 158 -26 528 -31 705 -11
447 52 865 202 1222 439 69 46 124 78 121 70 -3 -7 0 -13 6 -13 6 0 12 5 12
10 1 6 2 15 3 21 2 16 57 58 70 53 11 -4 49 31 57 53 2 5 42 44 89 86 144 131
307 321 415 484 27 41 52 70 59 67 14 -5 68 71 110 154 29 57 30 62 17 62 -5
0 -12 -8 -15 -17 -4 -10 -15 -29 -26 -43 -11 -14 7 28 39 92 185 371 291 820
291 1232 0 55 5 97 11 103 9 9 8 16 -5 28 -10 11 -16 33 -16 65 0 27 -7 102
-15 166 -41 312 -126 587 -269 879 -163 331 -301 528 -531 761 -88 89 -153
158 -143 153 53 -28 -20 63 -77 97 -25 14 -45 30 -45 34 0 5 -9 11 -20 15 -11
3 -45 23 -77 44 -32 21 -84 54 -115 74 -31 21 -72 40 -90 44 -18 3 -78 30
-133 59 -277 146 -648 259 -965 293 -112 12 -367 20 -460 15z m530 -88 c80
-12 83 -13 47 -20 -20 -5 -57 -5 -82 -2 -37 6 -44 5 -39 -7 8 -21 116 -45 201
-46 40 0 81 -5 92 -10 11 -6 41 -11 68 -10 l48 1 -55 18 c-30 11 -71 19 -90
20 -19 1 -44 5 -55 9 -12 5 9 7 50 6 78 -3 205 -32 220 -51 13 -17 97 -44 150
-49 48 -4 224 -74 268 -106 15 -11 37 -22 48 -24 12 -2 35 -13 52 -25 18 -11
56 -31 85 -45 155 -74 402 -263 592 -454 320 -321 516 -640 650 -1059 49 -152
104 -414 96 -459 -2 -18 -1 -33 4 -33 4 0 11 -35 14 -77 4 -43 9 -98 11 -122
l5 -44 -30 59 c-16 32 -33 75 -36 94 -4 19 -15 49 -25 65 -10 17 -21 51 -24
75 -13 96 -16 110 -27 110 -6 0 -8 -11 -4 -27 4 -19 3 -23 -3 -13 -5 8 -12 31
-16 50 -7 32 -6 34 10 20 17 -14 18 -13 11 20 -4 19 -9 44 -10 55 -17 111
-133 424 -219 589 -23 44 -42 83 -43 86 -3 20 -57 123 -71 138 -31 33 -90 104
-142 172 -27 36 -58 74 -68 86 -10 11 -27 37 -37 58 -11 20 -23 33 -28 28 -5
-5 -34 15 -66 46 -130 126 -161 154 -174 156 -33 7 -92 39 -126 70 -20 18 -45
35 -54 39 -11 4 -15 12 -12 22 4 9 0 15 -9 15 -9 0 -29 11 -44 25 -48 42 -51
45 -80 56 -58 23 -78 34 -88 47 -6 7 -17 14 -25 15 -8 2 -62 26 -120 54 -113
56 -223 106 -282 130 -24 10 -35 19 -31 29 3 8 1 14 -5 14 -6 0 -12 -5 -14
-12 -3 -7 -23 -2 -63 16 -33 15 -75 31 -95 36 -19 5 -78 21 -130 35 -52 14
-135 33 -185 41 -109 19 -502 30 -627 17 -53 -5 -94 -5 -104 0 -11 6 -19 5
-24 -3 -4 -7 -30 -17 -56 -21 -144 -26 -273 -55 -285 -65 -8 -6 -34 -17 -59
-24 -25 -8 -67 -24 -94 -37 -27 -12 -64 -25 -82 -29 -30 -5 -69 -34 -48 -34 5
0 -4 -9 -21 -20 -16 -11 -42 -20 -56 -20 -24 0 -65 -31 -54 -41 2 -3 -10 -6
-27 -7 -16 -1 -65 -19 -107 -40 -63 -31 -101 -61 -225 -180 -82 -79 -169 -171
-194 -205 -24 -34 -55 -72 -68 -84 -36 -35 -74 -88 -74 -104 0 -8 -10 -25 -23
-39 -12 -14 -19 -21 -16 -15 3 5 9 23 13 39 8 34 31 68 91 141 55 66 64 83 34
60 -33 -25 -121 -133 -197 -244 -35 -50 -70 -91 -78 -91 -8 0 -14 -5 -14 -11
0 -5 5 -7 11 -3 13 8 13 8 -42 -76 -21 -31 -44 -62 -53 -69 -9 -7 -16 -20 -16
-27 0 -8 -9 -19 -20 -26 -11 -7 -20 -19 -20 -26 0 -7 5 -10 10 -7 11 7 -17
-43 -66 -117 -17 -26 -33 -45 -37 -42 -10 11 -29 -38 -23 -61 4 -14 0 -27 -9
-35 -9 -8 -13 -21 -10 -34 5 -16 4 -18 -4 -6 -13 19 -13 18 -44 -65 -66 -181
-118 -390 -132 -539 -2 -17 -8 -60 -14 -96 -6 -36 -11 -95 -11 -132 0 -40 -5
-70 -12 -74 -8 -5 -9 -2 -5 11 4 9 3 23 -2 29 -5 6 -11 22 -14 36 -2 14 -5 -9
-6 -51 -1 -84 7 -103 25 -62 11 24 13 8 14 -112 1 -77 2 -143 2 -146 -1 -4 2
-30 7 -58 6 -40 5 -49 -4 -41 -20 16 -27 76 -26 211 1 103 -7 125 -28 75 -16
-36 -16 -31 -15 122 0 87 4 163 7 169 4 6 9 41 12 79 3 38 8 76 11 85 2 9 6
37 9 64 4 39 3 45 -9 36 -11 -10 -24 -76 -29 -161 -1 -14 -7 -24 -14 -23 -16
4 -17 -19 -2 -34 13 -13 2 -56 -12 -47 -6 3 -8 -25 -5 -75 3 -46 0 -81 -5 -81
-5 0 -9 -5 -9 -11 0 -5 5 -7 10 -4 6 4 10 -12 10 -40 0 -28 -4 -44 -10 -40 -6
4 -10 -6 -10 -22 0 -22 2 -25 10 -13 7 11 10 4 10 -27 0 -23 -5 -45 -10 -48
-8 -5 -8 -11 0 -19 7 -9 5 -45 -7 -121 -13 -86 -18 -103 -25 -84 -5 13 -8 41
-6 61 1 20 -1 40 -5 44 -4 4 -7 2 -7 -5 0 -7 -4 -10 -9 -7 -5 3 -12 -27 -17
-67 l-7 -72 -12 60 c-7 33 -13 53 -14 45 -1 -11 -4 -10 -13 4 -8 15 -8 21 0
24 19 6 14 19 -9 25 -21 6 -21 8 -16 219 11 430 101 783 302 1177 305 600 858
1093 1485 1323 140 52 300 99 300 89 0 -4 12 -8 26 -9 19 -1 25 2 21 12 -4 10
17 18 86 31 51 9 99 19 108 21 9 3 24 -2 32 -11 9 -8 24 -15 34 -15 17 1 17 1
-1 15 -18 13 -17 14 5 20 105 26 541 27 709 1z m-495 -296 c-4 -6 10 -10 34
-10 22 0 43 5 46 10 9 14 43 12 48 -2 3 -10 7 -10 20 0 10 8 21 10 29 5 7 -4
67 -8 133 -9 78 0 146 -7 195 -18 41 -10 91 -18 110 -17 23 1 30 -2 22 -7 -10
-7 -8 -11 10 -15 12 -4 25 -2 26 3 6 16 29 12 36 -6 4 -12 15 -15 36 -12 17 3
30 1 30 -4 0 -4 -6 -8 -12 -8 -9 0 -8 -4 2 -10 8 -5 26 -10 40 -10 24 1 24 1
6 15 -20 15 -20 15 0 15 19 0 57 -19 39 -20 -5 0 -3 -4 5 -10 9 -5 17 -5 20 0
3 5 16 7 28 3 12 -3 19 -10 15 -16 -4 -6 3 -8 20 -3 20 5 32 1 47 -14 14 -14
28 -19 41 -15 11 4 26 1 34 -5 8 -7 15 -10 15 -7 0 3 39 -12 88 -34 48 -22
103 -47 122 -56 19 -8 42 -19 50 -24 8 -5 41 -23 72 -40 38 -21 60 -40 66 -58
11 -31 38 -61 55 -61 7 0 -1 11 -16 25 -62 58 -2 40 66 -19 16 -14 34 -27 40
-30 9 -3 9 -7 -1 -13 -9 -7 -4 -15 18 -31 39 -29 49 -28 20 3 -31 33 -19 32
17 -1 15 -14 27 -32 25 -39 -1 -7 5 -16 14 -19 12 -5 15 -2 10 10 -4 9 9 4 31
-14 57 -46 98 -91 98 -110 0 -10 9 -18 23 -20 13 -2 22 -10 22 -20 0 -9 32
-48 70 -86 39 -39 73 -81 77 -95 3 -13 16 -34 29 -45 22 -20 72 -89 135 -189
17 -26 40 -53 51 -61 11 -8 21 -20 22 -27 15 -66 22 -82 43 -105 16 -18 25
-41 28 -76 5 -53 12 -71 24 -63 5 2 6 -6 4 -18 -2 -12 3 -31 11 -42 14 -19 15
-18 6 15 -9 32 -8 33 5 15 17 -22 35 -79 35 -112 0 -26 49 -175 60 -183 4 -3
7 -20 8 -38 0 -18 5 -39 11 -45 5 -7 16 -41 24 -75 13 -55 13 -62 0 -58 -16 6
-10 -7 16 -38 9 -11 11 -16 4 -13 -14 9 -21 -10 -15 -41 3 -15 10 -21 18 -18
10 4 14 -3 14 -22 0 -15 3 -38 5 -52 l6 -25 -11 24 c-6 13 -12 22 -15 20 -7
-8 7 -49 17 -49 5 0 8 -12 7 -28 -2 -15 -1 -32 3 -37 8 -13 -5 -83 -31 -169
-11 -38 -23 -96 -25 -130 l-5 -61 17 70 18 70 8 -38 c4 -20 5 -41 3 -45 -3 -4
-8 -63 -11 -132 -10 -192 -65 -439 -109 -483 -13 -13 -17 -22 -9 -25 16 -5 15
-22 -2 -22 -7 0 -23 -19 -34 -42 -69 -142 -106 -214 -112 -218 -4 -3 -17 -23
-29 -45 -39 -72 -136 -220 -166 -251 -11 -12 -36 -44 -55 -70 -53 -74 -114
-144 -125 -144 -6 0 -22 -13 -37 -30 -14 -16 -28 -26 -32 -23 -3 3 -8 -2 -12
-11 -3 -9 -15 -16 -25 -16 -12 0 -19 -7 -19 -20 0 -10 -10 -25 -22 -31 -13 -7
-27 -18 -31 -25 -4 -8 -13 -14 -19 -14 -7 0 -29 -18 -49 -40 -21 -22 -42 -40
-48 -40 -6 0 -36 -20 -66 -45 -30 -24 -79 -60 -109 -79 -30 -19 -57 -39 -60
-45 -4 -6 -16 -11 -28 -11 -11 0 -33 -13 -48 -30 -15 -16 -37 -30 -48 -30 -24
0 -118 -41 -171 -74 -21 -14 -54 -26 -72 -28 -20 -2 -34 -9 -34 -16 0 -15 -50
-39 -150 -72 -38 -12 -74 -26 -80 -30 -19 -15 -130 -40 -133 -30 -2 6 -13 10
-25 10 -20 0 -20 0 -1 15 10 8 14 15 7 15 -6 0 -18 -6 -26 -14 -8 -8 -35 -17
-61 -21 -64 -10 -67 -23 -3 -18 77 6 37 -13 -45 -22 -38 -3 -68 -10 -68 -15 0
-18 230 20 340 57 41 14 86 27 100 30 14 2 29 8 34 14 6 5 18 9 29 9 21 0 150
60 155 72 2 4 10 8 18 8 18 0 257 120 266 134 4 6 10 7 14 4 3 -4 27 7 53 25
25 17 49 32 54 33 4 1 12 2 17 3 6 0 15 12 20 26 5 14 15 25 21 25 6 0 31 14
56 30 24 17 50 30 58 30 8 0 20 8 27 18 7 10 22 22 32 25 10 4 16 10 13 13 -8
8 60 67 73 62 15 -5 -120 -116 -235 -192 -55 -36 -109 -72 -120 -80 -36 -24
-289 -158 -352 -187 -121 -54 -362 -134 -463 -153 -19 -4 -73 -14 -120 -23
-63 -11 -140 -15 -300 -14 -118 1 -217 4 -220 7 -3 3 81 4 186 2 149 -2 194 0
204 10 18 19 12 20 -60 11 -89 -11 -401 -16 -387 -6 7 5 -21 6 -61 3 -49 -3
-70 -2 -66 6 4 7 -8 8 -37 4 -28 -4 -37 -3 -24 3 17 7 13 9 -20 14 -22 3 -47
6 -55 5 -30 0 -161 22 -178 31 -43 23 -138 55 -159 53 -13 -1 -26 5 -29 13 -4
8 -15 15 -26 15 -12 0 -29 9 -38 20 -10 12 -22 20 -26 18 -5 -1 -21 6 -36 16
-18 12 -34 15 -45 10 -15 -6 -14 -8 7 -12 14 -2 29 -7 33 -12 5 -4 -4 -5 -20
-2 -15 3 -39 16 -53 29 -13 14 -26 20 -28 15 -1 -5 -11 -8 -22 -5 -12 3 -16
11 -13 20 5 13 1 15 -21 9 -21 -5 -32 -1 -51 20 -13 14 -28 23 -34 20 -9 -6
-71 24 -101 49 -8 7 -44 29 -80 50 -36 20 -67 40 -70 44 -3 3 -31 24 -62 45
-63 42 -88 67 -92 88 -5 26 -29 67 -42 72 -16 6 -19 -10 -4 -19 5 -3 15 -16
21 -28 15 -31 -77 69 -120 131 -12 17 -26 32 -31 32 -5 0 -47 38 -94 85 -47
47 -81 85 -76 85 6 0 -6 25 -27 55 -21 30 -44 52 -50 50 -14 -5 -32 24 -26 41
2 6 -12 34 -30 61 -19 28 -44 73 -57 99 -65 142 -115 235 -135 254 -13 12 -21
28 -18 36 8 22 -16 114 -38 146 -17 23 -18 32 -9 43 8 9 9 25 5 42 -7 25 -8
26 -15 8 -7 -19 -7 -19 -18 2 -7 12 -12 34 -12 49 0 37 -20 105 -37 126 -11
12 -11 18 -3 23 7 4 10 16 7 26 -3 11 -2 17 2 15 4 -3 7 12 7 32 0 20 4 88 8
150 7 82 6 112 -3 112 -7 0 -12 -28 -12 -82 -1 -46 -4 -69 -6 -53 -3 17 -9 34
-14 40 -14 14 -12 128 3 119 8 -5 9 0 4 17 -9 31 -10 37 -2 77 5 24 2 34 -9
38 -8 4 -15 10 -15 16 0 5 5 6 10 3 6 -3 10 -1 10 4 0 6 -4 11 -10 11 -5 0
-10 10 -10 23 0 18 2 19 10 7 8 -12 10 -9 10 13 0 15 -4 27 -10 27 -15 0 -12
38 3 43 9 3 9 8 -2 21 -11 13 -11 20 -3 28 7 7 12 26 12 43 0 16 5 46 11 65
15 52 20 71 29 115 23 112 78 272 145 420 48 105 90 192 99 204 6 7 29 46 51
86 69 124 121 195 144 195 5 0 15 14 23 30 7 17 20 30 31 30 12 0 17 6 15 18
-2 10 24 44 65 86 37 38 67 72 67 77 0 5 4 9 9 9 4 0 54 45 111 100 57 56 115
107 131 115 15 8 37 28 49 45 12 17 25 28 29 26 4 -3 23 8 42 24 19 16 41 29
49 30 9 0 36 18 60 40 25 22 54 40 65 40 22 0 47 13 46 24 -3 18 0 26 9 26 6
0 58 27 117 61 111 63 228 115 217 97 -7 -11 54 -4 119 14 50 15 47 28 -4 17
-69 -16 -68 -4 2 16 37 11 56 20 46 23 -29 6 -240 -66 -303 -104 -31 -19 -60
-34 -65 -34 -11 0 -176 -93 -204 -115 -11 -8 -68 -47 -127 -86 -60 -39 -108
-75 -108 -80 0 -5 -7 -9 -15 -9 -8 0 -15 -4 -15 -10 0 -5 -6 -10 -13 -10 -8 0
-33 -18 -56 -40 -23 -22 -45 -39 -49 -38 -4 0 -12 -9 -18 -21 -6 -12 -26 -33
-44 -46 -18 -13 -41 -33 -52 -45 -10 -11 -24 -20 -31 -20 -26 1 167 172 312
278 277 203 463 301 726 385 168 53 182 55 149 22 -22 -22 -13 -28 22 -14 16
6 87 21 159 34 107 18 126 24 110 33 -18 10 -16 11 15 12 28 0 32 -3 20 -11
-12 -8 -10 -9 10 -5 14 3 41 6 60 6 26 0 31 3 20 10 -12 8 -9 10 13 10 16 0
26 -4 22 -10z m-202 -17 c-7 -2 -21 -2 -30 0 -10 3 -4 5 12 5 17 0 24 -2 18
-5z m-123 -18 c-81 -17 -90 -18 -90 -4 0 6 8 8 19 4 11 -3 22 -2 24 2 3 5 29
9 59 10 l53 1 -65 -13z m-600 -19 c0 -2 -11 -6 -25 -8 -13 -3 -22 -1 -19 3 5
9 44 13 44 5z m-240 -221 c0 -2 -10 -9 -22 -15 -22 -11 -22 -10 -4 4 21 17 26
19 26 11z m-290 -218 c0 -1 -21 -20 -47 -41 l-48 -38 42 41 c37 36 53 48 53
38z m3523 -161 c211 -212 387 -482 505 -776 27 -69 55 -141 61 -160 53 -175
68 -235 52 -210 -21 31 -19 1 5 -75 13 -44 22 -89 20 -100 -3 -11 -1 -27 4
-35 5 -8 10 -10 11 -5 0 6 9 -8 19 -29 15 -33 16 -42 5 -53 -17 -17 -35 -17
-35 1 0 7 -11 33 -24 58 -13 25 -27 59 -31 76 -3 17 -16 43 -28 59 -12 15 -16
23 -8 19 10 -7 12 -3 6 15 -3 13 -9 32 -12 42 -2 9 -9 15 -14 12 -5 -4 -9 1
-9 10 0 9 5 13 10 10 6 -4 10 6 10 22 l1 28 14 -32 c18 -42 26 -42 14 -1 -12
43 -11 47 6 24 25 -32 18 -1 -29 133 -96 271 -184 454 -307 635 -41 60 -81
119 -89 131 -16 24 -71 96 -80 105 -52 51 -152 160 -147 160 3 0 35 -29 70
-64z m-3733 -126 c0 -5 -10 -15 -22 -21 -23 -12 -23 -12 -4 10 21 23 26 26 26
11z m-63 -75 c-17 -19 -37 -35 -45 -35 -9 0 -1 14 21 35 20 19 40 35 46 35 5
0 -5 -16 -22 -35z m-103 -114 c-26 -25 -39 -35 -29 -21 11 14 26 29 33 33 7 5
18 21 24 35 7 18 12 22 15 13 3 -7 -16 -34 -43 -60z m4227 -223 c8 -15 8 -18
0 -14 -6 4 -16 16 -22 28 -8 15 -8 18 0 14 6 -4 16 -16 22 -28z m152 -319 c10
-24 27 -62 37 -84 11 -22 21 -65 24 -95 5 -50 4 -53 -9 -36 -8 11 -15 29 -15
40 0 12 -5 28 -10 36 -8 12 -10 10 -11 -10 -1 -24 -1 -24 -14 5 -8 19 -10 36
-4 47 10 19 -21 129 -48 167 -9 14 -17 35 -18 49 0 13 -9 28 -18 34 -10 5 -15
13 -12 18 3 5 -6 32 -20 59 -14 28 -25 54 -24 58 0 9 114 -221 142 -288z m-33
-9 c0 -13 -1 -13 -10 0 -5 8 -10 22 -10 30 0 13 1 13 10 0 5 -8 10 -22 10 -30z
m241 -637 c-9 -16 -10 -14 -11 12 0 21 3 26 11 18 8 -8 8 -16 0 -30z m71 -339
c-2 -32 1 -61 7 -67 6 -6 11 -23 11 -38 0 -15 4 -30 8 -33 20 -12 -35 -327
-89 -515 -94 -326 -266 -664 -475 -931 -272 -346 -635 -634 -1023 -811 -81
-37 -111 -46 -137 -42 -29 5 -34 3 -34 -14 0 -19 -38 -34 -265 -102 -315 -95
-767 -121 -1130 -65 -141 21 -402 86 -380 94 10 4 44 1 74 -7 70 -16 71 -16
65 0 -7 21 -103 57 -180 69 -38 5 -87 18 -109 28 -22 10 -56 21 -75 24 -33 7
-34 6 -16 -9 23 -18 119 -55 144 -55 9 0 23 -4 31 -9 8 -5 -5 -7 -35 -4 -58 5
-199 59 -223 84 -22 24 -114 69 -141 69 -32 0 -248 123 -265 150 -3 5 -22 17
-41 26 -20 9 -48 29 -62 44 -15 15 -45 38 -68 52 -57 36 -122 93 -243 211
-362 356 -594 761 -711 1244 -45 186 -45 185 -20 144 12 -18 19 -35 17 -38 -3
-2 4 -29 14 -58 10 -30 19 -61 19 -69 0 -9 6 -35 14 -58 8 -24 24 -77 36 -118
26 -88 40 -120 128 -300 60 -123 102 -194 157 -261 38 -47 48 -42 14 7 -114
164 -237 437 -298 657 -25 91 -25 92 -8 75 11 -11 81 -201 92 -249 18 -83 72
-201 115 -252 24 -28 61 -91 85 -142 13 -30 29 -55 34 -55 5 0 12 -18 16 -39
6 -36 34 -66 36 -38 0 7 3 6 6 -3 3 -8 20 -31 37 -51 17 -19 56 -68 86 -108
40 -52 68 -78 102 -95 26 -13 61 -40 78 -61 17 -21 39 -45 50 -52 11 -8 17
-20 14 -28 -4 -8 -2 -15 3 -15 5 0 35 -25 66 -56 39 -38 62 -54 73 -50 11 4
18 -1 21 -14 3 -12 12 -19 22 -18 10 2 17 -5 19 -19 3 -23 22 -33 22 -13 0 6
30 -12 68 -40 87 -66 76 -58 162 -116 41 -28 118 -74 170 -102 95 -51 341
-152 435 -179 147 -42 193 -58 182 -65 -7 -4 -1 -11 17 -18 37 -14 59 -6 26 9
-23 10 -22 11 10 5 19 -3 62 -12 95 -21 33 -8 83 -19 110 -23 28 -5 73 -13
101 -20 33 -7 129 -9 275 -7 223 5 365 20 559 63 103 23 120 24 120 11 0 -7 7
-3 15 7 8 10 36 27 62 36 26 9 87 31 135 49 47 17 96 31 107 31 12 0 21 6 21
14 0 8 28 28 63 45 172 85 212 110 212 134 0 7 20 22 45 33 24 12 54 34 67 48
12 14 27 26 33 26 6 0 34 14 64 30 66 38 166 141 234 242 29 43 66 92 82 108
17 17 46 62 65 100 19 37 46 81 60 96 26 28 65 106 65 130 0 7 5 16 11 20 24
14 -5 -64 -53 -144 -27 -46 -48 -88 -46 -93 5 -16 92 123 170 273 59 115 73
136 85 126 11 -9 17 -9 24 3 14 23 10 32 -11 26 -24 -6 -24 -3 -7 31 34 67 56
119 62 144 3 19 10 26 20 22 8 -4 15 -1 15 5 0 6 -4 11 -9 11 -5 0 7 41 27 90
21 55 39 85 43 78 5 -8 12 -3 20 16 10 22 10 31 0 48 -9 15 -9 23 -1 33 7 8 9
24 5 37 -4 16 -3 19 3 9 12 -17 31 -6 30 17 -1 9 6 51 15 92 8 41 19 101 22
133 4 31 11 57 16 57 5 0 22 26 38 58 34 65 38 54 21 -57 -6 -36 -15 -97 -21
-136 -10 -67 -22 -127 -53 -260 -23 -97 -84 -283 -122 -373 -20 -46 -33 -86
-30 -89 15 -16 166 384 166 439 0 10 4 26 9 36 18 32 64 257 62 300 -1 24 2
49 8 56 11 13 17 158 7 174 -3 5 1 23 9 38 8 16 15 36 15 45 0 9 8 34 17 55
l17 39 6 -37 c3 -26 9 -35 17 -30 16 10 33 57 33 93 0 16 3 29 8 29 4 0 5 -25
4 -56z m-193 -119 c-5 -12 -7 6 -7 50 1 69 1 69 8 20 4 -27 3 -59 -1 -70z
m-599 -1407 c-30 -41 -70 -76 -70 -61 0 7 91 103 97 103 2 0 -10 -19 -27 -42z
m-77 -81 c7 4 -10 -14 -36 -40 -26 -26 -52 -47 -56 -47 -5 0 -14 -7 -21 -15
-7 -9 -27 -25 -44 -36 l-31 -21 30 27 c70 62 115 109 115 120 0 6 6 17 13 24
10 10 13 9 15 -4 2 -9 9 -12 15 -8z m-73 -1 c0 -2 -8 -10 -17 -17 -16 -13 -17
-12 -4 4 13 16 21 21 21 13z m-60 -61 c-7 -9 -15 -13 -18 -10 -3 2 1 11 8 20
7 9 15 13 18 10 3 -2 -1 -11 -8 -20z m-70 -109 c0 -2 -8 -10 -17 -17 -16 -13
-17 -12 -4 4 13 16 21 21 21 13z m-10 -48 c-168 -152 -387 -288 -673 -418 -27
-12 -50 -20 -53 -18 -2 3 28 19 68 37 40 18 81 36 91 42 28 15 50 26 82 40 16
8 82 48 145 90 63 41 123 79 133 82 21 8 209 150 227 172 7 8 15 15 19 15 3
-1 -14 -19 -39 -42z m-30 18 c0 -2 -8 -10 -17 -17 -16 -13 -17 -12 -4 4 13 16
21 21 21 13z m-3560 -71 c13 -14 21 -25 18 -25 -2 0 -15 11 -28 25 -13 14 -21
25 -18 25 2 0 15 -11 28 -25z m3470 1 c0 -2 -8 -10 -17 -17 -16 -13 -17 -12
-4 4 13 16 21 21 21 13z m-80 -216 c0 -5 -8 -10 -17 -10 -15 0 -16 2 -3 10 19
12 20 12 20 0z m-630 -210 c-20 -13 -33 -13 -25 0 3 6 14 10 23 10 15 0 15 -2
2 -10z m-115 -40 c-3 -5 -16 -10 -28 -9 -21 0 -21 1 -2 9 28 12 37 12 30 0z
m-85 -17 c-8 -3 -18 -10 -21 -16 -10 -14 -135 -36 -151 -26 -9 6 -3 9 17 10
17 0 55 9 85 19 50 17 110 28 70 13z m-891 -49 c8 -7 -64 -3 -104 6 -31 7 -24
7 30 3 39 -3 72 -7 74 -9z m694 -1 c-7 -2 -19 -2 -25 0 -7 3 -2 5 12 5 14 0
19 -2 13 -5z m-600 -10 c-13 -2 -35 -2 -50 0 -16 2 -5 4 22 4 28 0 40 -2 28
-4z m130 -10 c-18 -2 -48 -2 -65 0 -18 2 -4 4 32 4 36 0 50 -2 33 -4z m270 0
c-7 -2 -21 -2 -30 0 -10 3 -4 5 12 5 17 0 24 -2 18 -5z m-130 -10 c-7 -2 -19
-2 -25 0 -7 3 -2 5 12 5 14 0 19 -2 13 -5z"/>
<path d="M5270 7348 c8 -9 33 -19 55 -22 37 -6 39 -5 21 9 -11 8 -28 15 -37
15 -10 0 -26 3 -36 6 -16 6 -16 5 -3 -8z"/>
<path d="M5940 7026 c8 -8 26 -17 40 -21 l25 -6 -25 20 c-30 24 -64 30 -40 7z"/>
<path d="M6181 6882 c6 -16 93 -82 99 -76 3 3 -11 19 -30 36 -43 36 -74 54
-69 40z"/>
<path d="M6597 6523 c21 -27 58 -73 84 -103 25 -30 65 -86 89 -125 23 -38 51
-81 60 -95 30 -44 119 -214 134 -255 7 -22 32 -78 54 -125 22 -47 58 -146 80
-220 22 -74 45 -146 51 -160 10 -22 11 -19 7 20 -2 25 -6 54 -10 65 -3 11 -14
54 -25 95 -26 104 -69 213 -142 367 -21 45 -39 84 -39 87 0 3 -15 29 -32 59
-18 29 -37 60 -43 69 -27 44 -123 179 -159 223 -45 55 -132 145 -141 145 -4 0
11 -21 32 -47z"/>
<path d="M2420 6401 c-6 -12 -7 -21 -1 -21 10 0 24 30 17 37 -2 3 -9 -5 -16
-16z"/>
<path d="M2368 6323 c-13 -21 -27 -46 -31 -55 -3 -10 -15 -18 -26 -18 -22 0
-34 -23 -19 -38 6 -6 -1 -31 -24 -73 -19 -35 -47 -93 -62 -129 -16 -36 -39
-88 -52 -117 -13 -28 -24 -57 -24 -63 0 -6 -9 -30 -19 -53 -42 -92 -51 -121
-51 -156 0 -20 -5 -42 -11 -48 -12 -12 -38 -115 -39 -153 0 -14 4 -20 9 -15 9
10 45 120 46 142 0 6 4 15 8 19 4 4 7 15 7 24 0 27 55 198 83 260 13 30 28 66
32 80 16 54 182 381 205 404 12 12 13 26 1 26 -4 0 -19 -17 -33 -37z"/>
<path d="M2483 6335 c-3 -9 -3 -19 1 -22 8 -9 37 18 30 28 -8 14 -24 11 -31
-6z"/>
<path d="M2296 6044 c-10 -25 1 -29 14 -5 6 12 7 21 1 21 -5 0 -12 -7 -15 -16z"/>
<path d="M1951 5483 c0 -25 1 -26 9 -8 12 27 12 35 0 35 -5 0 -10 -12 -9 -27z"/>
<path d="M7194 5245 c4 -16 11 -48 15 -70 5 -31 8 -36 14 -20 8 24 -7 93 -23
109 -10 8 -11 4 -6 -19z"/>
<path d="M2026 5243 c-2 -10 -7 -38 -11 -63 -5 -39 -4 -43 8 -28 8 10 15 38
15 63 2 46 -3 58 -12 28z"/>
<path d="M1877 5123 c-11 -10 -8 -53 3 -53 6 0 10 14 10 30 0 31 -2 35 -13 23z"/>
<path d="M2011 5110 c-9 -44 -8 -81 1 -72 5 5 8 27 5 48 -2 22 -5 32 -6 24z"/>
<path d="M1869 4878 c-7 -15 -5 -239 2 -243 11 -8 11 -13 13 128 2 64 -1 117
-6 117 -4 0 -9 -1 -9 -2z"/>
<path d="M1810 4752 c0 -45 4 -72 11 -72 7 0 9 22 5 66 -7 90 -16 93 -16 6z"/>
<path d="M4747 7173 c-9 -8 -36 -11 -127 -12 -59 -1 -71 -4 -56 -13 29 -16
173 -5 194 15 9 10 12 17 6 17 -6 0 -14 -3 -17 -7z"/>
<path d="M4345 7140 c-8 -13 15 -13 35 0 12 8 11 10 -7 10 -12 0 -25 -4 -28
-10z"/>
<path d="M3900 7120 c-8 -5 -12 -11 -9 -14 2 -3 11 -1 19 4 8 5 12 11 9 14 -2
3 -11 1 -19 -4z"/>
<path d="M3731 7016 c-10 -12 -8 -13 8 -9 12 3 21 9 21 14 0 14 -16 11 -29 -5z"/>
<path d="M5985 6730 c3 -5 8 -10 11 -10 2 0 4 5 4 10 0 6 -5 10 -11 10 -5 0
-7 -4 -4 -10z"/>
<path d="M3060 6595 c-7 -9 -8 -15 -2 -15 5 0 12 7 16 15 3 8 4 15 2 15 -2 0
-9 -7 -16 -15z"/>
<path d="M6170 6556 c0 -2 8 -10 18 -17 15 -13 16 -12 3 4 -13 16 -21 21 -21
13z"/>
<path d="M6280 6446 c0 -2 7 -6 15 -10 8 -3 15 -1 15 4 0 6 -7 10 -15 10 -8 0
-15 -2 -15 -4z"/>
<path d="M3846 6360 c-16 -5 -48 -27 -70 -48 -23 -21 -86 -74 -141 -117 -209
-166 -415 -358 -415 -388 0 -10 -13 -35 -30 -54 -16 -18 -30 -41 -30 -51 0 -9
-9 -30 -20 -47 -14 -21 -16 -33 -8 -42 6 -8 7 -13 0 -13 -5 0 -16 -15 -23 -32
-19 -46 -16 -293 4 -317 7 -9 26 -43 42 -76 17 -36 53 -83 90 -120 33 -33 73
-76 88 -96 24 -32 73 -56 86 -43 2 2 -34 43 -80 91 -56 58 -88 101 -96 126 -9
29 -9 36 0 29 77 -60 146 -104 180 -112 23 -6 99 -39 169 -73 113 -55 128 -65
128 -87 0 -15 6 -32 13 -39 10 -11 8 -11 -10 0 -18 11 -25 11 -35 1 -6 -6 -23
-12 -37 -12 -23 0 -24 -1 -6 -20 10 -11 31 -20 46 -20 70 0 149 -118 157 -235
4 -61 1 -74 -18 -98 -12 -15 -25 -25 -30 -22 -4 2 -15 49 -25 102 -16 86 -22
102 -51 131 -19 19 -44 47 -55 63 -21 30 -73 63 -90 57 -5 -2 11 -28 36 -58
25 -30 63 -91 85 -135 90 -184 75 -333 -43 -442 -78 -72 -191 -84 -287 -33
-53 29 -110 40 -110 21 0 -23 15 -43 42 -57 35 -18 29 -38 -8 -24 -14 6 -38
10 -53 10 -49 0 -60 -18 -71 -115 -6 -49 -15 -129 -20 -176 -6 -53 -6 -97 -1
-115 5 -16 12 -42 16 -58 3 -17 22 -45 42 -63 33 -32 34 -34 10 -28 -55 14
-89 -18 -59 -55 21 -25 223 -80 298 -80 53 0 312 62 323 77 3 5 31 15 61 22
54 13 90 35 90 54 0 13 -60 0 -122 -27 -29 -13 -106 -36 -172 -51 l-118 -28
-88 16 c-88 17 -167 44 -157 53 3 3 23 0 46 -6 22 -6 101 -13 173 -16 127 -4
137 -3 218 24 166 57 336 133 414 187 21 14 40 25 41 23 1 -2 12 -21 23 -43
11 -22 29 -48 40 -59 21 -18 21 -18 28 9 5 18 -1 45 -16 81 -18 45 -20 57 -9
70 11 14 14 12 27 -13 8 -15 28 -40 44 -56 15 -16 28 -38 28 -51 0 -40 11 -50
193 -185 28 -21 68 -42 87 -46 19 -4 47 -16 62 -27 35 -24 118 -61 125 -55 2
3 0 14 -6 24 -9 18 -6 19 77 16 103 -4 182 -14 165 -20 -57 -21 81 -32 160
-14 43 10 59 21 39 28 -18 7 46 53 72 53 22 0 63 25 176 105 36 26 81 56 100
68 23 15 40 37 51 67 11 29 26 50 43 58 30 15 41 37 51 106 7 41 41 104 51 93
2 -2 -3 -20 -11 -40 -8 -20 -15 -54 -15 -75 0 -55 -43 -115 -161 -225 -71 -66
-99 -99 -100 -117 -1 -17 -3 -19 -6 -7 -6 23 -44 22 -77 -4 -29 -23 -26 -39 7
-39 20 0 20 -2 -8 -25 -70 -56 -125 -78 -222 -87 -194 -17 -278 -26 -288 -29
-26 -8 -128 16 -198 48 -62 27 -86 33 -113 28 -43 -8 -36 -21 19 -36 23 -6 53
-21 67 -33 62 -55 75 -59 254 -67 99 -4 179 -4 193 2 13 5 38 9 54 9 19 0 37
9 51 25 14 16 32 25 51 25 34 0 124 49 165 89 17 17 44 31 69 35 29 5 43 14
51 31 6 13 35 39 65 58 60 39 120 120 161 221 122 296 121 293 118 401 -1 55
-6 123 -12 150 -24 135 -40 240 -67 440 -3 22 -10 46 -16 53 -16 21 -20 47
-21 174 -1 107 -3 118 -24 141 -21 22 -22 27 -10 46 11 18 10 27 -9 64 -16 31
-23 69 -28 147 -3 58 -11 148 -16 200 -18 177 -29 435 -23 543 7 120 -9 237
-32 237 -7 0 -23 -5 -36 -11 -23 -10 -23 -11 -22 -192 1 -150 0 -166 -7 -92
-4 50 -13 141 -19 203 -14 130 -2 123 -149 92 -78 -16 -102 -17 -149 -8 -51
11 -56 10 -73 -10 -9 -12 -22 -22 -28 -22 -14 0 -31 -33 -41 -83 l-8 -42 -1
58 c-1 63 -15 72 -58 42 -20 -14 -22 -13 -28 15 -8 37 -18 38 -44 4 -17 -21
-19 -35 -15 -97 16 -230 56 -511 91 -642 9 -33 19 -94 24 -135 4 -41 14 -106
22 -145 8 -38 20 -99 27 -135 6 -36 36 -189 65 -340 30 -151 59 -318 65 -370
28 -251 29 -261 14 -319 -24 -90 -100 -170 -185 -192 -87 -23 -137 10 -175
116 -58 158 -66 192 -69 274 l-3 85 -49 19 c-28 11 -84 21 -133 24 l-85 6 -1
51 c0 28 -7 62 -14 76 -14 25 -14 24 -22 -25 -5 -27 -6 -62 -4 -77 5 -26 -7
-38 -41 -38 -12 0 -14 13 -12 68 5 116 -56 270 -174 440 -50 73 -87 112 -163
173 -54 44 -130 95 -170 114 -51 25 -87 52 -128 96 -105 113 -122 186 -72 309
37 92 178 239 251 263 28 10 55 25 61 35 7 10 30 24 53 30 45 14 61 35 61 81
0 32 -13 37 -72 32 -14 -2 -16 4 -11 34 7 42 -12 69 -63 85 -29 10 -32 14 -24
30 26 49 -9 65 -81 36 -19 -7 -40 -11 -47 -9 -6 3 -30 -9 -51 -26 -21 -17 -49
-31 -62 -31 l-24 0 23 18 c13 11 22 26 20 37 -2 12 12 28 42 50 51 36 74 80
50 95 -17 11 -16 11 -54 0z m-121 -230 c-3 -5 -16 -15 -28 -21 -19 -9 -19 -8
3 10 28 23 34 26 25 11z m1402 -47 c-3 -10 -5 -2 -5 17 0 19 2 27 5 18 2 -10
2 -26 0 -35z m32 -193 c-1 -48 -3 -44 -15 40 -16 120 -16 153 2 75 7 -33 13
-85 13 -115z m-1109 120 c-8 -5 -19 -10 -25 -10 -5 0 -3 5 5 10 8 5 20 10 25
10 6 0 3 -5 -5 -10z m-490 -8 c0 -5 -12 -14 -27 -21 -28 -13 -28 -13 -9 8 20
22 36 27 36 13z m1521 -119 c10 -59 18 -128 18 -153 0 -39 -1 -43 -13 -28 -8
11 -16 62 -19 130 -4 62 -10 127 -13 143 -4 17 -3 27 1 23 4 -3 15 -55 26
-115z m-1621 38 c0 -21 -35 -51 -58 -51 -8 0 -2 13 15 35 32 40 43 44 43 16z
m2171 -373 c18 -124 20 -212 4 -196 -8 7 -34 287 -39 408 -5 124 -5 124 4 30
5 -52 19 -161 31 -242z m-1915 61 c-9 -29 -16 -71 -16 -93 0 -47 23 -153 46
-210 14 -36 14 -38 0 -27 -9 7 -28 38 -43 68 -36 74 -37 180 -4 266 28 71 38
69 17 -4z m127 -830 c33 -45 14 -51 -22 -7 -25 30 -29 39 -16 37 10 -2 27 -16
38 -30z m557 -326 c-9 -15 -10 -12 -6 16 3 18 7 41 8 50 0 9 3 1 5 -16 2 -18
-1 -41 -7 -50z m-23 -85 c-3 -8 -6 -5 -6 6 -1 11 2 17 5 13 3 -3 4 -12 1 -19z
m618 -529 c5 -5 1 -9 -12 -9 -11 0 -27 7 -34 16 -12 15 -11 16 11 9 14 -4 29
-11 35 -16z m21 -55 c48 -6 54 -9 34 -15 -40 -11 -95 -10 -108 3 -16 16 -15
31 1 25 8 -3 40 -9 73 -13z m-465 -182 c69 -37 154 -81 200 -104 43 -21 147
-38 242 -38 70 0 91 -15 35 -25 -18 -3 -82 -4 -143 -2 -97 3 -116 6 -163 31
-47 24 -55 25 -65 12 -10 -12 -26 -1 -101 70 -49 46 -82 84 -74 84 9 0 39 -13
69 -28z"/>
<path d="M3655 6316 c-59 -42 -96 -88 -82 -102 4 -4 28 12 54 35 27 23 63 51
80 64 33 22 44 48 21 46 -7 0 -40 -20 -73 -43z"/>
<path d="M3525 6210 c-26 -11 -231 -217 -223 -225 8 -8 177 110 206 144 31 36
54 79 44 84 -4 3 -16 1 -27 -3z"/>
<path d="M2670 6191 c-7 -15 -7 -21 0 -21 12 0 25 28 17 36 -3 3 -10 -4 -17
-15z"/>
<path d="M2257 5481 c-4 -17 -3 -21 5 -13 5 5 8 16 6 23 -3 8 -7 3 -11 -10z"/>
<path d="M2216 5364 c-9 -24 -7 -28 9 -14 17 14 20 30 6 30 -5 0 -12 -7 -15
-16z"/>
<path d="M3465 4830 c-9 -15 3 -30 25 -30 15 0 30 18 30 36 0 9 -49 3 -55 -6z"/>
<path d="M5021 4756 c-26 -31 20 -61 56 -38 10 6 9 13 -3 30 -17 25 -36 28
-53 8z"/>
<path d="M2980 4510 c0 -34 19 -40 45 -14 19 19 4 44 -26 44 -14 0 -19 -7 -19
-30z"/>
<path d="M5050 4475 c0 -37 18 -47 40 -20 16 19 3 55 -21 55 -15 0 -19 -7 -19
-35z"/>
<path d="M6027 4433 c-16 -15 -6 -33 18 -33 27 0 32 9 13 28 -14 14 -22 15
-31 5z"/>
<path d="M5905 4360 c-3 -5 -1 -19 5 -30 15 -29 80 -29 80 0 0 11 6 20 13 20
8 0 7 4 -3 10 -20 13 -87 13 -95 0z"/>
<path d="M3294 4303 c-13 -49 37 -83 72 -49 14 15 13 19 -14 46 -37 37 -50 38
-58 3z"/>
<path d="M2155 4220 c12 -41 27 -60 20 -25 -4 17 -11 35 -17 40 -7 7 -8 2 -3
-15z"/>
<path d="M5903 3860 c-17 -52 -57 -153 -88 -223 -31 -71 -54 -132 -50 -135 13
-13 61 58 79 115 10 32 35 95 57 141 35 71 40 90 37 140 l-3 57 -32 -95z"/>
<path d="M6723 3895 c-9 -25 4 -29 17 -6 7 15 7 21 0 21 -6 0 -13 -7 -17 -15z"/>
<path d="M6666 3774 c-5 -14 -4 -15 9 -4 17 14 19 20 6 20 -5 0 -12 -7 -15
-16z"/>
<path d="M4290 3575 c0 -8 7 -15 15 -15 8 0 15 7 15 15 0 8 -7 15 -15 15 -8 0
-15 -7 -15 -15z"/>
<path d="M4440 3451 c0 -25 103 -101 117 -87 9 8 -16 34 -63 67 -45 31 -54 34
-54 20z"/>
<path d="M2580 3351 c0 -6 4 -13 10 -16 6 -3 7 1 4 9 -7 18 -14 21 -14 7z"/>
<path d="M4005 2474 c-46 -11 -51 -14 -35 -24 8 -5 18 -6 22 -2 5 5 38 5 76 1
37 -5 78 -8 92 -8 24 -1 24 -1 5 13 -21 14 -127 28 -160 20z"/>
<path d="M4340 2430 c0 -5 11 -10 25 -10 14 0 25 5 25 10 0 6 -11 10 -25 10
-14 0 -25 -4 -25 -10z"/>
<path d="M7080 5210 c0 -5 5 -10 11 -10 5 0 7 5 4 10 -3 6 -8 10 -11 10 -2 0
-4 -4 -4 -10z"/>
<path d="M7157 4614 c-4 -4 -7 -14 -7 -23 0 -11 3 -12 11 -4 6 6 10 16 7 23
-2 6 -7 8 -11 4z"/>
<path d="M7171 4453 c0 -25 1 -26 9 -8 12 27 12 35 0 35 -5 0 -10 -12 -9 -27z"/>
<path d="M6896 3854 c-9 -24 -7 -28 9 -14 17 14 20 30 6 30 -5 0 -12 -7 -15
-16z"/>
<path d="M6710 3470 c-6 -11 -8 -20 -6 -20 3 0 10 9 16 20 6 11 8 20 6 20 -3
0 -10 -9 -16 -20z"/>
<path d="M6516 3052 c-16 -18 -16 -20 2 -25 11 -2 26 -1 33 4 12 7 11 11 -2
24 -14 14 -17 14 -33 -3z"/>
<path d="M2510 3035 c0 -14 80 -98 87 -91 3 3 -15 27 -41 53 -25 26 -46 44
-46 38z"/>
<path d="M2789 2770 c13 -11 28 -20 35 -20 6 1 0 10 -13 20 -13 11 -28 20 -35
20 -6 -1 0 -10 13 -20z"/>
<path d="M5897 2553 c-12 -12 -7 -22 8 -17 8 4 15 10 15 15 0 11 -14 12 -23 2z"/>
<path d="M3360 2381 c0 -5 12 -14 28 -19 15 -5 36 -13 46 -18 14 -5 17 -4 12
4 -4 7 -23 19 -43 27 -42 18 -43 18 -43 6z"/>
<path d="M5245 2180 c3 -5 10 -10 16 -10 5 0 9 5 9 10 0 6 -7 10 -16 10 -8 0
-12 -4 -9 -10z"/>
<path d="M5816 7568 c3 -5 10 -6 15 -3 13 9 11 12 -6 12 -8 0 -12 -4 -9 -9z"/>
<path d="M5427 7554 c-8 -9 102 -46 118 -40 11 4 -45 31 -86 41 -13 3 -28 3
-32 -1z"/>
<path d="M5630 7442 c0 -10 117 -62 139 -62 28 0 -10 29 -65 50 -60 22 -74 24
-74 12z"/>
<path d="M3147 7374 c-4 -4 -17 -8 -29 -9 -13 -1 -26 -3 -30 -4 -3 0 -4 -9 -1
-20 3 -12 11 -17 23 -14 21 6 69 53 53 53 -5 0 -13 -3 -16 -6z"/>
<path d="M5782 7355 c-12 -14 -22 -28 -22 -33 0 -11 83 -42 110 -41 14 1 45
-2 70 -6 l45 -7 -33 31 c-32 29 -120 81 -140 81 -5 0 -18 -11 -30 -25z"/>
<path d="M2481 7233 c-75 -64 -101 -93 -82 -93 4 0 32 21 62 48 30 26 66 56
80 67 30 24 44 45 30 45 -6 0 -46 -30 -90 -67z"/>
<path d="M6475 7229 c10 -31 9 -31 37 -27 22 3 22 4 -11 27 l-33 24 7 -24z"/>
<path d="M6510 7175 c7 -8 22 -15 34 -15 20 1 20 2 -4 15 -33 19 -46 19 -30 0z"/>
<path d="M6380 7171 c0 -14 70 -72 80 -66 15 9 0 33 -35 55 -36 22 -45 24 -45
11z"/>
<path d="M7262 7130 c13 -20 38 -35 38 -22 0 8 -37 42 -45 42 -3 0 0 -9 7 -20z"/>
<path d="M2364 7120 c-24 -9 -154 -147 -154 -163 0 -7 37 25 83 71 45 45 88
82 94 82 7 0 15 5 18 10 7 12 -12 12 -41 0z"/>
<path d="M6218 7093 c23 -41 70 -86 90 -88 27 -2 162 -95 162 -111 0 -6 27
-35 60 -63 88 -77 239 -232 246 -253 8 -27 34 -22 34 6 0 17 -23 45 -79 98
-43 41 -81 84 -85 95 -4 12 -30 41 -59 65 -29 23 -66 56 -83 73 -17 17 -56 48
-86 68 -30 19 -60 43 -67 51 -15 18 -87 61 -119 71 -21 6 -22 5 -14 -12z"/>
<path d="M6760 6963 c0 -3 11 -21 25 -39 14 -18 25 -35 25 -39 0 -14 45 -65
57 -65 20 0 17 6 -34 75 -43 58 -73 86 -73 68z"/>
<path d="M2159 6901 c-1 -3 -2 -11 -3 -18 0 -6 -36 -53 -79 -103 -44 -50 -77
-93 -74 -96 7 -7 40 25 113 111 103 119 99 113 69 113 -14 0 -26 -3 -26 -7z"/>
<path d="M6810 6842 c0 -18 97 -119 106 -110 3 4 -19 33 -50 65 -30 32 -56 52
-56 45z"/>
<path d="M2152 6738 c-16 -16 -15 -28 3 -28 8 0 15 2 15 4 0 2 3 11 6 20 7 19
-7 21 -24 4z"/>
<path d="M2050 6566 c-38 -52 -95 -136 -126 -187 -79 -129 -215 -414 -254
-529 -65 -195 -140 -553 -140 -665 1 -70 20 -34 25 46 2 33 7 64 10 69 3 5 10
49 16 97 11 101 26 162 76 323 100 324 237 600 414 837 38 50 69 94 69 97 0
22 -29 -7 -90 -88z"/>
<path d="M2289 6603 c-31 -32 -67 -74 -80 -93 -12 -19 -43 -52 -66 -74 -24
-21 -69 -82 -100 -135 -31 -53 -65 -107 -75 -121 -24 -33 -166 -362 -179 -416
-7 -29 -15 -41 -24 -38 -8 3 -18 -3 -24 -14 -15 -29 -21 -70 -10 -74 6 -2 8
-24 3 -57 -4 -29 -10 -47 -14 -41 -6 9 -9 9 -15 0 -4 -7 -3 -15 3 -19 8 -5 7
-20 -4 -50 -8 -24 -14 -67 -12 -95 l3 -51 14 60 c8 33 18 65 23 71 4 6 12 31
17 55 5 24 32 109 60 189 28 80 51 159 52 175 1 43 12 66 27 56 10 -6 10 -14
2 -35 -5 -15 -10 -35 -10 -44 0 -13 3 -12 15 5 8 12 14 40 13 62 -1 23 2 44 5
48 4 3 3 11 -3 18 -6 7 -1 21 17 40 14 17 30 42 35 58 6 15 14 27 18 27 11 0
93 150 86 158 -3 3 8 14 25 24 16 10 36 33 44 52 8 18 21 39 30 46 9 7 23 26
31 41 8 16 46 70 84 120 61 81 78 109 67 109 -1 0 -28 -26 -58 -57z"/>
<path d="M6650 6644 c0 -23 42 -68 59 -63 6 2 -5 22 -24 44 -29 34 -34 37 -35
19z"/>
<path d="M7015 6599 c10 -33 22 -56 87 -162 60 -96 92 -137 108 -137 28 0 -18
86 -123 230 -65 88 -83 106 -72 69z"/>
<path d="M6891 6485 c38 -52 57 -70 65 -62 9 8 -34 74 -59 92 -37 26 -39 16
-6 -30z"/>
<path d="M2020 6439 c-18 -33 -6 -42 13 -9 10 16 14 30 8 30 -6 0 -15 -9 -21
-21z"/>
<path d="M6900 6414 c0 -12 61 -94 70 -94 17 0 11 14 -21 58 -27 37 -49 53
-49 36z"/>
<path d="M1976 6374 c-10 -25 1 -29 14 -5 6 12 7 21 1 21 -5 0 -12 -7 -15 -16z"/>
<path d="M1920 6281 c-6 -12 -7 -21 -1 -21 10 0 24 30 17 37 -2 3 -9 -5 -16
-16z"/>
<path d="M6980 6285 c0 -19 56 -82 66 -73 4 4 2 14 -5 21 -6 8 -9 23 -5 33 4
14 4 16 -4 5 -8 -11 -12 -10 -21 8 -13 24 -31 28 -31 6z"/>
<path d="M1883 6215 c-9 -25 4 -29 17 -6 7 15 7 21 0 21 -6 0 -13 -7 -17 -15z"/>
<path d="M7070 6145 c0 -16 31 -63 45 -68 24 -10 18 26 -8 51 -23 21 -37 28
-37 17z"/>
<path d="M2005 6100 c-19 -37 -19 -51 1 -25 26 34 36 55 25 55 -6 0 -17 -13
-26 -30z"/>
<path d="M1813 6073 c-7 -15 -11 -28 -9 -31 6 -6 28 38 24 48 -2 5 -9 -3 -15
-17z"/>
<path d="M1826 6018 c-18 -30 -29 -68 -19 -68 9 1 53 67 53 81 0 17 -19 9 -34
-13z"/>
<path d="M7156 5984 c-8 -20 47 -144 64 -144 7 0 9 9 5 23 -4 12 -9 30 -12 40
-2 10 -15 36 -27 58 -19 32 -25 37 -30 23z"/>
<path d="M1746 5919 c-27 -74 -33 -100 -17 -83 8 8 61 139 61 150 0 2 -4 4 -9
4 -5 0 -20 -32 -35 -71z"/>
<path d="M1947 5930 c-38 -59 -92 -210 -74 -210 9 0 98 212 94 223 -2 7 -11 0
-20 -13z"/>
<path d="M7240 5775 c1 -27 35 -124 49 -138 17 -17 14 10 -10 78 -23 66 -39
91 -39 60z"/>
<path d="M1691 5762 c-7 -13 -11 -26 -8 -28 8 -8 29 25 25 38 -3 8 -9 4 -17
-10z"/>
<path d="M7476 5735 c3 -16 11 -34 16 -40 6 -6 7 1 2 20 -3 17 -11 35 -16 40
-6 6 -7 -1 -2 -20z"/>
<path d="M1666 5682 c-3 -5 -8 -29 -11 -53 -8 -53 9 -34 20 24 7 35 3 48 -9
29z"/>
<path d="M7515 5555 c4 -27 14 -57 22 -65 14 -13 15 -12 9 10 -3 14 -6 34 -6
46 0 11 -7 29 -16 40 -14 18 -15 15 -9 -31z"/>
<path d="M1623 5513 c-12 -52 -10 -65 5 -36 15 28 25 83 14 83 -5 0 -14 -21
-19 -47z"/>
<path d="M1787 5493 c-11 -10 -8 -43 3 -43 6 0 10 11 10 25 0 26 -2 29 -13 18z"/>
<path d="M1601 5388 c0 -9 -4 -25 -7 -35 -5 -14 -4 -15 5 -7 7 7 11 22 8 35
-2 13 -5 16 -6 7z"/>
<path d="M1576 5219 c-13 -85 -17 -169 -8 -169 11 0 28 187 19 196 -3 4 -8 -9
-11 -27z"/>
<path d="M1656 5114 c-9 -36 1 -43 14 -10 12 33 12 36 1 36 -5 0 -12 -12 -15
-26z"/>
<path d="M1521 5073 c0 -25 1 -26 9 -8 12 27 12 35 0 35 -5 0 -10 -12 -9 -27z"/>
<path d="M7440 5050 c0 -11 5 -20 10 -20 6 0 10 -9 10 -20 0 -11 5 -20 10 -20
11 0 13 39 4 64 -9 23 -34 20 -34 -4z"/>
<path d="M1522 4920 c0 -47 4 -98 8 -115 l7 -30 7 37 c5 24 3 66 -7 115 l-14
78 -1 -85z"/>
<path d="M1701 4654 c0 -11 3 -14 6 -6 3 7 2 16 -1 19 -3 4 -6 -2 -5 -13z"/>
<path d="M7376 4634 c-10 -25 -7 -84 4 -84 6 0 10 23 10 50 0 52 -4 61 -14 34z"/>
<path d="M1670 4576 c0 -25 5 -48 10 -51 6 -4 10 13 10 44 0 28 -4 51 -10 51
-5 0 -10 -20 -10 -44z"/>
<path d="M7341 4514 c0 -11 3 -14 6 -6 3 7 2 16 -1 19 -3 4 -6 -2 -5 -13z"/>
<path d="M7485 4353 c-4 -10 -9 -61 -12 -113 -6 -128 15 -98 24 35 6 92 3 113
-12 78z"/>
<path d="M1670 4319 c0 -42 22 -139 31 -139 12 0 11 15 -2 86 -13 64 -29 94
-29 53z"/>
<path d="M1606 4124 l7 -49 -27 30 -27 30 7 -40 c4 -22 11 -50 15 -62 9 -25
35 -31 42 -10 4 11 57 -148 57 -171 0 -6 -6 -12 -12 -15 -9 -2 -4 -16 15 -44
31 -45 117 -237 117 -261 0 -61 143 -320 251 -454 33 -42 45 -65 43 -84 -5
-46 108 -174 153 -174 17 0 278 -262 275 -277 -2 -7 12 -26 30 -42 110 -98
211 -180 268 -216 36 -23 72 -48 81 -56 41 -39 128 -89 153 -89 27 0 6 28 -32
43 -20 8 -46 25 -57 37 -16 18 -10 16 29 -8 51 -33 114 -58 122 -49 7 6 -18
24 -121 88 -111 68 -198 132 -203 149 -3 8 17 -2 44 -23 68 -51 177 -117 194
-117 23 0 1 17 -180 142 -199 138 -191 133 -184 114 3 -8 23 -26 45 -40 21
-15 39 -31 39 -37 0 -5 -31 16 -70 47 -38 32 -70 59 -70 60 0 1 10 0 23 -3 19
-5 18 -1 -13 31 -19 20 -41 35 -50 34 -19 -3 -72 31 -65 42 7 12 -54 81 -69
78 -15 -3 -177 162 -241 247 -29 39 -74 96 -100 129 -26 32 -42 56 -36 52 25
-16 9 25 -25 60 -23 26 -38 34 -43 26 -4 -7 -22 9 -50 44 -29 37 -40 59 -33
63 19 11 5 51 -47 136 -27 44 -53 96 -58 115 -18 62 -93 264 -110 295 -10 17
-16 32 -15 35 1 3 -3 20 -9 39 -7 19 -19 71 -28 114 -9 45 -22 82 -29 85 -11
3 -12 -6 -6 -44z"/>
<path d="M1640 4148 c0 -23 22 -58 36 -58 12 0 2 41 -16 61 l-19 24 -1 -27z"/>
<path d="M1710 4116 c0 -22 33 -147 40 -151 30 -19 5 120 -26 146 -8 6 -14 8
-14 5z"/>
<path d="M7395 4015 c-10 -52 -16 -97 -13 -101 6 -5 48 159 48 185 0 6 -4 11
-8 11 -4 0 -16 -43 -27 -95z"/>
<path d="M7316 4074 c-3 -9 -6 -23 -6 -32 1 -12 5 -10 15 8 8 14 14 28 15 33
0 13 -18 7 -24 -9z"/>
<path d="M7420 3953 c-7 -32 -21 -79 -31 -105 -10 -26 -19 -56 -19 -68 0 -12
-6 -36 -14 -53 -7 -18 -24 -61 -36 -97 -19 -55 -98 -229 -133 -295 -137 -255
-283 -457 -467 -644 -87 -90 -108 -122 -57 -88 29 19 178 180 253 273 67 84
196 273 253 372 41 70 116 231 145 311 82 221 136 394 136 435 0 38 -20 11
-30 -41z"/>
<path d="M1780 3851 c0 -22 32 -59 37 -44 5 15 -15 63 -27 63 -5 0 -10 -9 -10
-19z"/>
<path d="M7246 3821 c-9 -16 -16 -36 -16 -44 0 -7 -11 -28 -25 -47 -14 -19
-25 -40 -25 -48 0 -15 -32 -86 -82 -182 -51 -98 -77 -154 -83 -182 -3 -16 -12
-28 -20 -28 -21 0 -47 -41 -34 -56 7 -9 0 -20 -26 -39 -19 -15 -35 -36 -35
-46 0 -9 -9 -20 -19 -24 -19 -6 -121 -137 -121 -155 0 -6 -5 -10 -12 -10 -11
0 -138 -124 -138 -135 0 -3 -43 -47 -95 -97 -53 -50 -93 -93 -90 -96 7 -7 79
44 157 113 37 33 87 76 110 95 43 37 171 189 224 269 64 95 184 296 196 328 8
21 19 33 30 33 11 0 25 14 35 36 15 30 15 37 3 44 -15 9 -3 48 40 131 21 40
54 159 46 166 -2 3 -12 -9 -20 -26z"/>
<path d="M7340 3811 c0 -5 -3 -18 -6 -28 -5 -16 -4 -16 10 1 18 23 20 36 6 36
-5 0 -10 -4 -10 -9z"/>
<path d="M7141 3713 c0 -25 1 -26 9 -8 12 27 12 35 0 35 -5 0 -10 -12 -9 -27z"/>
<path d="M1839 3706 c6 -7 9 -22 5 -32 -4 -13 -3 -15 3 -6 7 9 13 6 22 -14 6
-15 14 -24 18 -21 9 9 -5 54 -23 71 -20 20 -41 22 -25 2z"/>
<path d="M7300 3686 c-5 -15 -13 -39 -16 -54 -10 -40 11 -15 26 31 14 44 6 63
-10 23z"/>
<path d="M1645 3648 c18 -61 152 -318 165 -318 12 0 -1 52 -25 105 -13 28 -40
87 -61 133 -33 73 -56 102 -79 102 -3 0 -3 -10 0 -22z"/>
<path d="M7211 3644 c0 -11 3 -14 6 -6 3 7 2 16 -1 19 -3 4 -6 -2 -5 -13z"/>
<path d="M1890 3600 c0 -17 51 -100 61 -100 13 0 12 2 -17 54 -26 47 -44 66
-44 46z"/>
<path d="M7252 3567 c-16 -39 -25 -77 -18 -77 10 0 37 73 33 90 -3 10 -8 6
-15 -13z"/>
<path d="M1890 3502 c0 -16 66 -116 79 -120 18 -6 -46 115 -65 122 -8 3 -14 2
-14 -2z"/>
<path d="M7190 3430 c-7 -13 -7 -20 -1 -20 6 0 15 9 21 20 7 13 7 20 1 20 -6
0 -15 -9 -21 -20z"/>
<path d="M6981 3344 c-23 -30 -26 -40 -11 -49 10 -6 45 63 37 72 -3 2 -14 -8
-26 -23z"/>
<path d="M2020 3326 c0 -22 75 -135 99 -150 6 -4 22 -31 36 -60 13 -28 45 -73
70 -99 25 -26 45 -51 45 -55 0 -4 49 -56 109 -114 95 -93 143 -129 156 -116
10 10 -59 100 -83 109 -32 12 -142 118 -142 137 0 7 -30 46 -66 86 -36 40 -71
82 -77 93 -27 45 -73 109 -88 120 -9 7 -19 26 -22 43 -8 36 -37 42 -37 6z"/>
<path d="M7112 3285 c-34 -70 -37 -79 -23 -70 13 7 71 109 71 124 0 27 -18 6
-48 -54z"/>
<path d="M2126 3280 c22 -37 42 -55 50 -47 10 10 -31 72 -50 75 -17 4 -17 3 0
-28z"/>
<path d="M7214 3153 c-77 -118 -99 -159 -74 -136 7 6 19 9 28 5 11 -4 14 -1 9
11 -4 12 15 50 56 115 83 128 80 122 68 122 -6 0 -45 -53 -87 -117z"/>
<path d="M7050 3253 c0 -5 -14 -24 -30 -43 -34 -40 -38 -55 -11 -40 40 21 79
90 51 90 -5 0 -10 -3 -10 -7z"/>
<path d="M1890 3192 c0 -15 91 -135 97 -128 4 3 -11 31 -31 60 -40 59 -66 85
-66 68z"/>
<path d="M6832 3147 c-25 -27 -29 -49 -7 -40 18 6 50 63 37 63 -5 0 -18 -10
-30 -23z"/>
<path d="M6936 3004 c-10 -25 1 -29 14 -5 6 12 7 21 1 21 -5 0 -12 -7 -15 -16z"/>
<path d="M7070 2893 c-71 -100 -85 -124 -68 -117 12 4 138 177 138 189 0 18
-23 -5 -70 -72z"/>
<path d="M6895 2949 c-4 -6 -5 -12 -2 -15 2 -3 7 2 10 11 7 17 1 20 -8 4z"/>
<path d="M6819 2853 c-13 -16 -12 -17 4 -4 16 13 21 21 13 21 -2 0 -10 -8 -17
-17z"/>
<path d="M6765 2800 c-10 -11 -14 -20 -8 -20 5 0 18 9 28 20 10 11 14 20 8 20
-5 0 -18 -9 -28 -20z"/>
<path d="M2280 2752 c0 -4 15 -23 34 -41 47 -46 68 -36 26 12 -29 34 -60 49
-60 29z"/>
<path d="M6886 2664 c-43 -47 -74 -89 -71 -93 7 -6 138 129 156 162 23 41 -14
11 -85 -69z"/>
<path d="M6595 2534 c-19 -19 -15 -27 9 -18 9 3 16 12 16 20 0 18 -5 18 -25
-2z"/>
<path d="M2750 2521 c0 -13 98 -99 131 -117 26 -13 30 -12 53 11 25 25 25 26
6 45 -26 26 -79 52 -94 47 -7 -3 -23 1 -37 9 -28 15 -59 18 -59 5z"/>
<path d="M6260 2445 c-23 -25 -22 -47 2 -28 7 6 22 12 32 14 25 5 31 39 7 39
-10 0 -28 -11 -41 -25z"/>
<path d="M2490 2443 c0 -13 94 -109 119 -122 34 -19 24 1 -29 56 -50 52 -90
81 -90 66z"/>
<path d="M2936 2379 c11 -18 97 -69 117 -69 27 0 13 15 -48 49 -56 32 -81 39
-69 20z"/>
<path d="M6378 2242 c-15 -9 -29 -24 -31 -34 -3 -10 -18 -23 -34 -29 -15 -6
-51 -28 -80 -50 -29 -21 -56 -39 -62 -39 -5 0 -11 -7 -15 -15 -3 -8 -2 -15 1
-15 14 0 222 143 227 156 3 8 12 14 19 14 8 0 20 7 27 15 10 12 9 15 -6 14
-11 0 -31 -8 -46 -17z"/>
<path d="M3145 2220 c10 -17 85 -51 103 -48 10 2 -5 14 -37 31 -55 28 -76 34
-66 17z"/>
<path d="M2850 2210 c0 -5 5 -10 11 -10 5 0 7 5 4 10 -3 6 -8 10 -11 10 -2 0
-4 -4 -4 -10z"/>
<path d="M2877 2141 c12 -10 19 -21 16 -25 -8 -7 27 -35 44 -36 26 0 -5 47
-44 68 -32 18 -41 14 -16 -7z"/>
<path d="M3039 2089 c13 -11 27 -17 30 -13 7 7 -28 34 -43 34 -6 -1 0 -10 13
-21z"/>
<path d="M5015 1950 c-3 -6 1 -7 9 -4 18 7 21 14 7 14 -6 0 -13 -4 -16 -10z"/>
<path d="M5875 1910 c-3 -6 1 -7 9 -4 18 7 21 14 7 14 -6 0 -13 -4 -16 -10z"/>
<path d="M4953 1863 c-25 -10 -12 -23 22 -23 26 0 33 3 29 15 -6 15 -27 18
-51 8z"/>
<path d="M3740 1715 c7 -8 22 -15 34 -15 20 1 20 2 -4 15 -33 19 -46 19 -30 0z"/>
</g>
</svg>
